<?xml version="1.0" standalone="no"?>
<!DOCTYPE svg PUBLIC "-//W3C//DTD SVG 20010904//EN"
 "http://www.w3.org/TR/2001/REC-SVG-20010904/DTD/svg10.dtd">
<svg version="1.0" xmlns="http://www.w3.org/2000/svg"
 width="700.000000pt" height="700.000000pt" viewBox="0 0 700.000000 700.000000"
 preserveAspectRatio="xMidYMid meet">
<metadata>
Created by potrace 1.14, written by Peter Selinger 2001-2017
</metadata>
<g transform="translate(0.000000,700.000000) scale(0.100000,-0.100000)"
fill="#000000" stroke="none">
<path d="M1185 6984 c-134 -21 -257 -59 -382 -119 -428 -205 -718 -595 -788
-1060 -22 -151 -22 -4459 0 -4610 22 -143 58 -263 119 -391 117 -244 272 -424
495 -573 90 -61 271 -145 375 -175 206 -59 95 -57 2546 -54 l2245 4 97 22
c581 134 1006 587 1093 1167 22 151 22 4459 0 4610 -22 143 -58 264 -120 392
-207 432 -590 717 -1060 788 -144 22 -4480 21 -4620 -1z m2580 -1465 c439 -37
824 -204 1108 -478 134 -130 218 -241 296 -391 83 -161 111 -243 157 -467 l4
-23 -438 0 -439 0 -13 43 c-16 53 -73 168 -113 226 -47 68 -140 155 -220 205
-230 143 -553 174 -839 79 -247 -81 -434 -252 -558 -507 -92 -188 -135 -370
-149 -618 -37 -682 170 -1172 584 -1378 169 -84 342 -113 577 -98 253 16 432
92 588 248 70 70 94 102 133 180 51 103 81 204 91 317 l7 73 -438 2 -438 3 -3
323 -2 322 855 0 855 0 0 -267 c0 -321 -13 -507 -45 -669 -127 -632 -581
-1092 -1229 -1244 -215 -51 -554 -66 -793 -35 -634 83 -1134 441 -1401 1005
-167 351 -240 777 -213 1229 34 554 194 979 499 1326 373 426 961 648 1577
594z"/>
</g>
</svg>
